<?xml version="1.0" encoding="UTF-8"?>
<!DOCTYPE svg PUBLIC "-//W3C//DTD SVG 1.0//EN" "http://www.w3.org/TR/2001/REC-SVG-20010904/DTD/svg10.dtd">
<svg xmlns="http://www.w3.org/2000/svg" xml:space="preserve" width="8.26772in" height="11.6929in" version="1.0" style="shape-rendering:geometricPrecision; text-rendering:geometricPrecision; image-rendering:optimizeQuality; fill-rule:evenodd; clip-rule:evenodd"
viewBox="0 0 8267.72 11692.91"
 xmlns:xlink="http://www.w3.org/1999/xlink">
 <defs>
  <style type="text/css">
   <![CDATA[
    .fil0 {fill:#ABDA4E}
    .fil1 {fill:white}
    .fil3 {fill:#185CA8;fill-rule:nonzero}
    .fil2 {fill:white;fill-rule:nonzero}
   ]]>
  </style>
 </defs>
 <g id="Layer_x0020_1">
  <metadata id="Layer"/>
  <g id="_2046792906768">
   <circle class="fil0" cx="4183.59" cy="4561.83" r="4089.74"/>
   <rect class="fil0" x="4193.78" y="4567" width="4089.75" height="4089.75"/>
  </g>
  <circle class="fil1" cx="4223.24" cy="4627.95" r="1278.05"/>
  <rect class="fil1" x="4195.59" y="5533.55" width="4089.75" height="357.85"/>
  <path class="fil2" d="M3734.03 7925.32l0 -1518.98 200.16 0 0 1518.98 -200.16 0zm956.31 -204.24l0 -293.93c-134.92,41.88 -227.96,80.8 -279.11,116.02 -51.15,35.58 -76.73,76.73 -76.73,123.8 0,41.51 13.34,73.39 39.66,95.63 26.69,22.61 63.75,33.73 111.57,33.73 35.59,0 70.43,-6.3 104.53,-19.27 34.1,-12.6 67.46,-31.51 100.08,-55.97l-0 -0.01zm7.41 121.95c-50.41,35.58 -98.59,61.16 -143.81,76.73 -45.22,15.57 -93.78,23.35 -146.04,23.35 -89.7,0 -160.13,-21.5 -210.91,-64.5 -50.78,-43.37 -75.99,-102.67 -75.99,-177.92 0,-70.8 27.43,-133.44 82.66,-186.81 54.86,-53.74 137.52,-98.96 248.34,-136.03l238.33 -79.69c0.74,-5.93 1.11,-11.49 1.48,-17.42 0.37,-5.56 0.74,-14.09 0.74,-24.83 0,-60.05 -14.83,-103.04 -44.11,-129.36 -29.28,-26.31 -77.84,-39.66 -145.3,-39.66 -55.6,0 -113.42,11.86 -172.73,35.22 -59.3,23.72 -118.98,58.56 -178.29,104.9l0 -197.57c51.52,-42.25 108.98,-73.76 172.73,-95.26 63.76,-21.13 131.22,-31.87 203.12,-31.87 128.99,0 222.4,28.54 281.33,85.25 58.56,56.71 87.85,148.26 87.85,275.03l0 424.78c0,35.58 2.96,60.79 9.27,75.61 6.3,14.83 16.31,22.24 30.76,22.24 12.6,0 25.2,-3.33 38.92,-9.64 13.34,-6.67 35.21,-21.87 65.61,-45.96l0 122.32c-36.33,31.13 -72.65,54.11 -109.72,68.94 -36.7,14.83 -74.87,22.24 -114.91,22.24 -38.18,0 -67.09,-8.15 -85.99,-24.09 -19.28,-15.94 -30.4,-41.14 -33.36,-75.98l0.01 -0.01zm462.22 82.29l0 -1003.01 200.16 0 0 121.94c50.04,-47.44 99.71,-82.29 149.38,-104.52 49.67,-21.87 103.04,-32.99 160.13,-32.99 73.76,0 135.66,13.72 185.33,40.78 49.67,27.06 91.18,69.69 125.28,128.25 61.53,-60.79 119.35,-104.16 173.1,-130.1 53.75,-25.94 111.2,-38.92 171.99,-38.92 109.35,0 195.34,31.51 258.72,94.52 63.38,62.64 94.89,149.38 94.89,259.09l0 664.97 -202.38 0 0 -613.82c0,-81.91 -16.68,-141.96 -50.41,-180.51 -33.73,-38.18 -86.36,-57.45 -157.9,-57.45 -53,0 -98.96,10.01 -137.89,30.02 -39.29,19.65 -77.1,52.63 -114.17,98.22l0 723.54 -195.71 0 0 -613.82c0,-81.17 -17.05,-141.22 -51.52,-179.77 -34.47,-38.92 -87.85,-58.19 -160.13,-58.19 -51.52,0 -96.37,10.01 -135.29,30.02 -38.55,19.65 -76.35,52.63 -113.42,98.22l0 723.54 -200.16 0 0 -0.02zm2646.53 -106.01c-66.72,42.63 -134.92,74.87 -205.72,96.37 -70.43,21.13 -143.45,31.88 -218.69,31.88 -158.27,0 -284.67,-48.93 -379.19,-147.15 -94.52,-98.22 -141.59,-229.07 -141.59,-392.9 0,-149.75 45.59,-271.7 136.41,-365.1 90.81,-93.41 209.05,-140.11 355.46,-140.11 144.56,0 259.46,47.44 343.97,142.33 84.88,94.89 127.14,222.77 127.14,384.37l0 29.28 -751.7 0c5.93,94.89 37.07,169.02 93.41,222.4 56.34,53.37 131.96,80.06 226.85,80.06 63.75,0 130.1,-11.86 199.41,-35.21 68.94,-23.72 140.48,-59.31 214.24,-107.12l0 200.9 0 -0.01zm-733.91 -503.36l531.53 0c-6.67,-73.39 -32.99,-131.96 -79.32,-176.06 -46.33,-44.11 -104.52,-66.35 -173.84,-66.35 -76.73,0 -139,20.39 -186.07,61.53 -47.07,40.77 -77.84,101.19 -92.3,180.88z"/>
  <path class="fil3" d="M1048.06 10385.29c-73.57,51 -145.46,88.61 -215.69,113.28 -70.22,24.66 -142.54,36.78 -216.52,36.78 -169.29,0 -305.14,-55.59 -407.55,-166.78 -102.41,-110.77 -153.82,-258.32 -153.82,-442.24 0,-171.38 48.49,-309.31 145.04,-413.4 96.98,-104.08 224.05,-156.33 381.63,-156.33 146.3,0 264.59,49.32 354.46,148.39 89.87,98.65 134.59,229.9 134.59,393.33l0 5.02 -882.81 0 0 13.37c0,147.56 39.71,267.1 118.71,358.64 79.42,91.54 181.83,137.1 307.23,137.1 75.24,0 147.55,-13.37 216.94,-39.71 69.39,-26.75 142.12,-68.55 217.78,-125.82l0 138.36 0.01 0.02zm-844.77 -589.79l718.95 0c-12.96,-99.9 -51.83,-179.74 -116.2,-240.35 -64.79,-60.61 -142.54,-90.7 -234.07,-90.7 -94.05,0 -175.14,30.52 -243.69,91.96 -68.55,61.44 -110.35,140.86 -124.98,239.09l-0.01 0zm1112.7 714.77l0 -1131.1 125.4 0 0 180.99c54.76,-67.71 114.53,-118.29 179.32,-151.31 65.21,-33.02 135.85,-49.74 212.76,-49.74 127.91,0 226.97,40.13 296.36,119.96 69.39,80.26 104.08,193.95 104.08,341.92l0 689.28 -125.4 0 0 -629.5c0,-136.26 -23.83,-237.84 -71.48,-305.13 -48.07,-67.3 -119.97,-101.16 -216.11,-101.16 -78.58,0 -149.22,20.06 -212.34,60.19 -63.54,39.71 -119.13,99.48 -167.2,178.48l0 797.12 -125.4 0 0.02 0zm2028.53 -45.14c-46.4,22.99 -93.21,40.13 -140.44,50.99 -46.82,11.29 -95.3,16.72 -145.05,16.72 -174.3,0 -317.26,-55.17 -429.28,-165.52 -112.02,-110.35 -168.04,-251.63 -168.04,-423.85 0,-167.61 57.68,-307.65 173.05,-420.09 114.95,-112.86 259.99,-169.29 433.88,-169.29 42.64,0 84.85,4.18 127.07,12.12 41.8,8.36 84.44,20.9 126.65,38.04l0 140.44c-43.06,-25.08 -86.94,-43.47 -130.83,-55.18 -44.31,-11.7 -90.7,-17.56 -139.61,-17.56 -125.81,0 -232.82,45.98 -320.6,137.94 -87.78,91.54 -131.67,203.56 -131.67,336.07 0,132.93 43.89,244.94 131.25,335.65 87.36,90.71 194.37,135.85 321.02,135.85 47.24,0 95.3,-7.94 143.79,-23.41 48.49,-15.46 98.23,-38.45 148.81,-69.39l0 140.45 0 0.02zm257.9 -519.15c0,131.25 44.31,242.86 132.5,334.4 88.2,91.54 194.37,137.1 319.35,137.1 124.15,0 229.9,-45.56 317.26,-137.1 87.36,-91.54 131.25,-203.15 131.25,-334.4 0,-132.5 -43.47,-244.53 -130.42,-336.07 -86.94,-91.96 -193.11,-137.94 -318.09,-137.94 -126.24,0 -233.24,45.98 -320.6,137.94 -87.36,91.54 -131.25,203.56 -131.25,336.07zm-137.94 -2.51c0,-164.27 57.26,-303.46 171.38,-418 114.11,-114.11 253.72,-171.38 418.83,-171.38 163.02,0 301.8,57.26 416.74,172.21 114.53,114.53 171.8,253.72 171.8,417.16 0,77.75 -15.46,152.99 -45.98,226.14 -30.51,73.15 -73.57,137.52 -129.16,193.11 -56.01,56.01 -119.55,98.65 -189.77,127.07 -70.22,28.84 -144.63,43.05 -223.63,43.05 -165.11,0 -304.72,-56.85 -418.83,-170.96 -114.11,-114.11 -171.38,-253.3 -171.38,-418.41l0 0zm2196.57 346.52l0 -695.55c-41.8,-43.47 -86.94,-75.24 -135.85,-96.14 -48.91,-20.9 -104.92,-31.35 -168.04,-31.35 -125.4,0 -227.81,43.89 -307.22,131.25 -79,87.36 -118.71,201.47 -118.71,342.76 0,141.28 39.71,255.4 118.71,342.76 79.42,87.36 181.83,131.25 307.22,131.25 64.79,0 121.22,-10.03 169.71,-30.09 48.49,-20.07 93.21,-51.41 134.18,-94.89l0 0.01zm0 137.1c-45.56,35.11 -94.47,61.44 -146.72,78.17 -52.25,16.72 -109.52,25.08 -171.38,25.08 -165.11,0 -298.45,-53.92 -400.86,-162.18 -102.41,-108.26 -153.82,-249.96 -153.82,-424.69 0,-174.72 51.41,-316.42 153.82,-424.69 102.41,-108.26 235.75,-162.18 400.86,-162.18 61.86,0 119.13,8.36 171.38,25.08 52.25,16.72 101.15,42.64 146.72,77.75l0 -662.11 122.89 0 0 1712.95 -122.89 0 0 -83.18 0 0.01zm1367.68 -41.8c-73.57,51 -145.46,88.61 -215.69,113.28 -70.22,24.66 -142.54,36.78 -216.52,36.78 -169.29,0 -305.14,-55.59 -407.55,-166.78 -102.41,-110.77 -153.82,-258.32 -153.82,-442.24 0,-171.38 48.49,-309.31 145.04,-413.4 96.98,-104.08 224.05,-156.33 381.63,-156.33 146.3,0 264.59,49.32 354.46,148.39 89.87,98.65 134.59,229.9 134.59,393.33l0 5.02 -882.81 0 0 13.37c0,147.56 39.71,267.1 118.71,358.64 79.42,91.54 181.83,137.1 307.23,137.1 75.24,0 147.55,-13.37 216.94,-39.71 69.39,-26.75 142.12,-68.55 217.78,-125.82l0 138.36 0.01 0.02zm-844.77 -589.79l718.95 0c-12.96,-99.9 -51.83,-179.74 -116.2,-240.35 -64.79,-60.61 -142.54,-90.7 -234.07,-90.7 -94.05,0 -175.14,30.52 -243.69,91.96 -68.55,61.44 -110.35,140.86 -124.98,239.09l-0.01 0zm1907.73 494.49l0 -695.55c-41.8,-43.47 -86.94,-75.24 -135.85,-96.14 -48.91,-20.9 -104.92,-31.35 -168.04,-31.35 -125.4,0 -227.81,43.89 -307.22,131.25 -79,87.36 -118.71,201.47 -118.71,342.76 0,141.28 39.71,255.4 118.71,342.76 79.42,87.36 181.83,131.25 307.22,131.25 64.79,0 121.22,-10.03 169.71,-30.09 48.49,-20.07 93.21,-51.41 134.18,-94.89l0 0.01zm0 137.1c-45.56,35.11 -94.47,61.44 -146.72,78.17 -52.25,16.72 -109.52,25.08 -171.38,25.08 -165.11,0 -298.45,-53.92 -400.86,-162.18 -102.41,-108.26 -153.82,-249.96 -153.82,-424.69 0,-174.72 51.41,-316.42 153.82,-424.69 102.41,-108.26 235.75,-162.18 400.86,-162.18 61.86,0 119.13,8.36 171.38,25.08 52.25,16.72 101.15,42.64 146.72,77.75l0 -662.11 122.89 0 0 1712.95 -122.89 0 0 -83.18 0 0.01z"/>
 </g>
</svg>
