<?xml version="1.0" encoding="UTF-8"?>
<!DOCTYPE svg PUBLIC "-//W3C//DTD SVG 1.0//EN" "http://www.w3.org/TR/2001/REC-SVG-20010904/DTD/svg10.dtd">
<svg xmlns="http://www.w3.org/2000/svg" xml:space="preserve" width="8.26772in" height="11.6929in" version="1.0" style="shape-rendering:geometricPrecision; text-rendering:geometricPrecision; image-rendering:optimizeQuality; fill-rule:evenodd; clip-rule:evenodd"
viewBox="0 0 8267.72 11692.91"
 xmlns:xlink="http://www.w3.org/1999/xlink">
 <defs>
  <style type="text/css">
   <![CDATA[
    .fil0 {fill:#17519E}
    .fil1 {fill:#ABD84C}
   ]]>
  </style>
 </defs>
 <g id="Layer_x0020_1">
  <metadata id="Layer"/>
  <path class="fil0" d="M3236.17 3130.85l0 1189.08 777.47 0 0 -1051.88c0,-134.71 32.43,-195.18 160.07,-205.8 42.7,63.78 68.6,96.44 68.6,205.8l0 1051.88 777.47 0 0 -1097.61c0,-93.07 36.12,-123 91.47,-160.07l90.58 25.67c52.87,199.7 23.76,972.18 23.76,1232.01l777.48 0 0 -1257.68c0,-384.24 -306.79,-731.74 -686.01,-731.74 -241.69,0 -248.6,-17.91 -457.77,91.03 -154.96,80.7 -136.73,99.24 -228.23,160.51 -280.65,-187.93 -200.82,-251.54 -708.87,-251.54 -342.72,0 -686,361.47 -686,800.34z"/>
  <path class="fil1" d="M6117.39 3245.19c0,335.33 11.48,605.74 267.83,852.64 130.13,125.34 401.91,267.83 646.85,267.83l1143.34 0 0 -754.6 -1006.14 0c-351.15,0 -367.83,-525.94 22.87,-525.94 183.44,0 251.54,138.34 251.54,297.27 0,83.07 -27.13,80.21 -45.74,160.07l800.34 0c7.72,-92.74 22.87,-56.92 22.87,-205.8 0,-434.69 -243.95,-757.85 -586.38,-922.83 -661.88,-318.89 -1517.37,153.08 -1517.37,831.37z"/>
  <path class="fil0" d="M1909.89 4365.67l251.54 0 0 -777.47c-126.12,10.49 -167.33,68.59 -288.74,15.96 -311.9,-135.18 -141.53,-519.03 105.8,-519.03 162.94,0 274.4,148.63 274.4,320.14l0 914.67 777.48 0c0,-374.68 42.94,-1095.8 -71.37,-1392.11 -77.78,-201.61 -254.63,-417.75 -457.12,-503.29 -268.3,-113.33 -373.13,-94.02 -660.59,-94.02 -509.46,0 -970.04,552.33 -931.57,1045.66 32.41,415.58 234.86,740.85 588.39,898.2 107.96,48.06 255.15,91.29 411.78,91.29z"/>
  <path class="fil1" d="M5522.85 1507.31c0,452.55 362.68,846.07 800.35,846.07 289.89,0 483.07,-36.41 692.7,-244.83 49.12,-48.84 137.31,-175.62 167.25,-244.37 235.11,-539.86 -116.56,-1180.08 -814.22,-1180.08 -460.71,0 -846.07,366.17 -846.07,823.21z"/>
  <polygon class="fil0" points="34.8,4319.94 812.28,4319.94 812.28,1644.51 34.8,1644.51 "/>
  <path class="fil1" d="M4082.23 752.71c0,219.09 1.83,420.74 211.9,611.31 422.78,383.54 1251.59,177.07 1251.59,-542.71 0,-389.76 -299.17,-664.05 -692.47,-703.96 -188.8,-19.16 -423.9,81.63 -525.26,172.24 -111.26,99.46 -245.75,263.59 -245.75,463.13z"/>
  <path class="fil1" d="M2710.22 1095.7c0,918.36 1280.54,800 1280.54,91.47 0,-733.52 -743.45,-833.12 -1081.08,-509.41 -111.1,106.52 -199.46,246 -199.46,417.94z"/>
  <path class="fil1" d="M2047.08 1804.58c0,153.86 4.77,305.87 145.84,402.97 326.16,224.5 723.11,2.63 723.11,-334.36 0,-212.62 -172.33,-411.61 -388.74,-411.61l-137.2 0c-154,0 -343.01,189 -343.01,343z"/>
  <path class="fil1" d="M2092.82 4708.67c0,380.41 594.54,392.05 594.54,0 0,-371.92 -594.54,-365.65 -594.54,0z"/>
  <path class="fil1" d="M2778.82 5394.68c274.2,0 348.04,-457.33 -22.87,-457.33 -287.86,0 -301.45,457.33 22.87,457.33z"/>
 </g>
</svg>
